<svg enable-background="new 0 0 450.223 130.353" height="130.353" viewBox="0 0 450.223 130.353" width="450.223" xmlns="http://www.w3.org/2000/svg"><g fill="#013c4f"><path d="m62.933 3.582h11.617v56.919h21.586v10.068h-33.203z"/><path d="m102.525 7.163c0-3.968 3.096-7.163 7.064-7.163 3.971 0 7.068 3.098 7.068 7.163 0 3.97-3.098 7.067-7.164 7.067-3.872 0-6.968-3.097-6.968-7.067m1.644 22.749-6.389-1.162v-7.162h17.328v48.981h-10.939z"/><path d="m120.431 21.588h11.715l6.775 23.037c.967 3.293 2.227 9.391 3.195 13.457h.096c.58-3.582 1.838-9.777 3-13.939l6.582-22.555h11.326l-16.26 48.981h-10.07z"/><path d="m171.25 7.163c0-3.968 3.098-7.163 7.068-7.163 3.969 0 7.064 3.098 7.064 7.163 0 3.97-3.096 7.067-7.164 7.067-3.871 0-6.968-3.097-6.968-7.067m1.644 22.749-6.389-1.162v-7.162h17.328v48.981h-10.939z"/><path d="m192.835 21.588h8.811l1.162 5.324c3.967-3.873 8.422-6.584 14.424-6.584 7.743 0 12.293 3.582 12.293 12.778v37.462h-11.037v-34.654c0-5.131-1.645-6.39-5.227-6.39-3.486 0-6.582 1.841-9.391 4.356v36.688h-11.035z"/><path d="m263.405 36.688c0-5.807-1.938-8.228-7.648-8.228-5.227 0-7.453 2.421-7.453 8.228 0 5.519 2.129 8.035 7.453 8.035 5.517 0 7.648-2.42 7.648-8.035m-17.715 38.141c0 4.26 1.451 6.582 10.164 6.582 6.969 0 10.551-2.613 10.551-7.357 0-4.451-2.807-5.518-8.422-5.518h-10.164c-1.258 1.453-2.129 3.582-2.129 6.293m-10.164 1.451c0-4.742 2.902-7.646 6.389-9.582-2.518-1.647-3.873-4.26-3.873-7.456 0-4.742 2.324-7.84 5.324-9.969-3.969-2.711-6.002-7.067-6.002-12.973 0-10.357 6.389-15.972 18.393-15.972 3.002 0 5.615.483 7.842 1.259h14.52v6.001l-5.615 1.839c1.066 2.227 1.646 4.84 1.646 7.551 0 10.358-6.098 15.295-18.295 15.295-2.131 0-3.969-.193-5.713-.483-1.16 1.354-2.129 3.194-2.129 4.743 0 1.354.969 2.42 3.291 2.42h8.906c10.262 0 17.23 4.162 17.23 13.94 0 10.551-6.68 16.262-21.779 16.262-14.037 0-20.135-4.742-20.135-12.875"/><path d="m300.571 3.582h16.166l9.1 31.17c1.742 5.905 2.42 11.133 2.711 15.198h.193c.387-3.97.871-9.293 2.613-15.198l8.906-31.17h16.746v66.987h-11.422v-34.365c0-11.132.484-19.263.773-22.942h-.193c-.58 3.775-2.613 13.553-5.033 21.297l-7.646 24.201h-10.746l-7.551-23.137c-2.42-7.84-4.258-18.682-4.84-22.361h-.193c.291 3.582.775 13.457.775 23.137v34.17h-10.359z"/><path d="m390.594 59.727v-12.39h-1.742c-10.551 0-12.391 2.71-12.391 8.905 0 5.615 1.646 7.551 5.809 7.551 3.678 0 6.389-2.13 8.324-4.066m-25.361-3.388c0-11.229 6.582-16.166 21.877-16.166h3.484v-2.808c0-5.131-.678-7.938-6.195-7.938-4.84 0-9.486 2.131-13.551 4.453l-4.066-7.841c5.227-3.388 10.939-5.711 18.779-5.711 10.941 0 16.068 4.259 16.068 15.295v34.945h-8.615l-1.355-4.258c-2.709 2.903-6.484 5.518-11.809 5.518-9.777.001-14.617-5.615-14.617-15.489"/><path d="m438.413 45.98c0-13.842-1.84-16.648-7.648-16.648-3.969 0-6.582 1.838-9.195 4.355v25.361c2.129 2.033 5.131 3.68 8.518 3.68 6.194.001 8.325-2.613 8.325-16.748m-27.879-24.392h8.811l1.256 5.13c3.68-3.97 8.037-6.39 13.068-6.39 9.875 0 16.555 5.422 16.555 25.072 0 19.457-5.324 26.428-16.555 26.428-5.227 0-9.389-2.42-12.1-4.938v22.748h-11.035z"/></g><path d="m0 101.885 6.677 6.691 14.436-14.443v36.22h9.481v-36.218l14.411 14.458 6.698-6.692-25.799-25.864z" fill="#ff5a00"/><path d="m25.883 75.933-.003-.003z" fill="#ff5a00"/><path d="m44.947 108.676.023.024z" fill="#ff5a00"/><path d="m51.807 101.939.003-.003z" fill="#ff5a00"/><path d="m6.635 108.675.007.007z" fill="#ff5a00"/><path d="m.252 60.52h51.199v10.049h-51.199z" fill="#ff5a00"/></svg>